<svg width="14" height="16" viewBox="0 0 14 16" fill="none" xmlns="http://www.w3.org/2000/svg">
<path d="M9.27844 0.123656C9.20506 0.046375 9.1045 0 9.00025 0H2.75869C1.60691 0 0.65625 0.946875 0.65625 2.0985V13.9014C0.65625 15.0531 1.60694 16 2.75866 16H11.2301C12.3818 16 13.3325 15.0531 13.3325 13.9014V4.52938C13.3325 4.42894 13.2861 4.33238 13.2205 4.25887L9.27844 0.123656ZM9.3905 1.36428L12.0302 4.13525H10.3142C9.80406 4.13525 9.3905 3.72556 9.3905 3.21547V1.36428ZM11.2301 15.2271H2.75866C2.036 15.2271 1.42919 14.6281 1.42919 13.9014V2.0985C1.42919 1.37584 2.03209 0.772937 2.75866 0.772937H8.61756V3.21544C8.61756 4.15453 9.37512 4.90819 10.3142 4.90819H12.5596V13.9014C12.5596 14.6281 11.9567 15.2271 11.2301 15.2271Z" fill="white" stroke="white" stroke-width="0.2"/>
<path d="M10.1751 12.5609H3.81371C3.60121 12.5609 3.42725 12.7347 3.42725 12.9474C3.42725 13.1599 3.60118 13.3339 3.81371 13.3339H10.179C10.3915 13.3339 10.5654 13.1599 10.5654 12.9474C10.5654 12.7347 10.3915 12.5609 10.1751 12.5609ZM6.71228 11.1735C6.78578 11.2507 6.88622 11.2971 6.99437 11.2971C7.10265 11.2971 7.20312 11.2507 7.2765 11.1735L9.54125 8.74255C9.68812 8.58786 9.6765 8.34058 9.52197 8.19764C9.36728 8.05077 9.12 8.06227 8.97706 8.21692L7.38084 9.92895V5.70873C7.38084 5.49608 7.2069 5.32227 6.99437 5.32227C6.78187 5.32227 6.6079 5.49608 6.6079 5.70873V9.92895L5.01562 8.21692C4.86875 8.06236 4.62525 8.05077 4.47068 8.19764C4.31615 8.34448 4.30456 8.58802 4.4514 8.74255L6.71228 11.1735Z" fill="white" stroke="white" stroke-width="0.2"/>
</svg>
